<svg xmlns="http://www.w3.org/2000/svg" viewBox="0 0 100 100">
  <defs>
    <linearGradient id="g1" x1="0" y1="0" x2="1" y2="1">
      <stop offset="0" stop-color="rgb(56,189,248)"/>
      <stop offset="0.55" stop-color="rgb(99,102,241)"/>
      <stop offset="1" stop-color="rgb(167,139,250)"/>
    </linearGradient>
  </defs>

  <!-- outer ring -->
  <circle cx="50" cy="50" r="46" fill="none" stroke="url(#g1)" stroke-width="2" opacity="0.75"/>

  <!-- 12-circle rosette -->
  <g fill="none" stroke="url(#g1)" stroke-width="1.6" opacity="0.85">
    <!-- ringRadius=24, R=22 -->
    <circle cx="74" cy="50" r="22"/>
    <circle cx="70.784" cy="62" r="22"/>
    <circle cx="62" cy="70.784" r="22"/>
    <circle cx="50" cy="74" r="22"/>
    <circle cx="38" cy="70.784" r="22"/>
    <circle cx="29.216" cy="62" r="22"/>
    <circle cx="26" cy="50" r="22"/>
    <circle cx="29.216" cy="38" r="22"/>
    <circle cx="38" cy="29.216" r="22"/>
    <circle cx="50" cy="26" r="22"/>
    <circle cx="62" cy="29.216" r="22"/>
    <circle cx="70.784" cy="38" r="22"/>
  </g>

  <!-- north star -->
  <path d="
    M 50 24
    L 53 44
    L 76 50
    L 53 56
    L 50 76
    L 47 56
    L 24 50
    L 47 44
    Z
    M 50 34 L 50 66
    M 34 50 L 66 50
    M 39 39 L 61 61
    M 61 39 L 39 61
  "
    fill="none" stroke="url(#g1)" stroke-width="2.1" stroke-linejoin="miter" opacity="0.95"/>
</svg>